<?xml version="1.0" encoding="UTF-8" standalone="no"?>
<!-- Created with Inkscape (http://www.inkscape.org/) -->

<svg
   xmlns:dc="http://purl.org/dc/elements/1.1/"
   xmlns:cc="http://creativecommons.org/ns#"
   xmlns:rdf="http://www.w3.org/1999/02/22-rdf-syntax-ns#"
   xmlns:svg="http://www.w3.org/2000/svg"
   xmlns="http://www.w3.org/2000/svg"
   xmlns:sodipodi="http://sodipodi.sourceforge.net/DTD/sodipodi-0.dtd"
   xmlns:inkscape="http://www.inkscape.org/namespaces/inkscape"
   width="205.2292"
   height="200"
   viewBox="0 0 205.2292 200"
   id="svg4141"
   version="1.1"
   inkscape:version="0.91 r13725"
   sodipodi:docname="PhotoshopCC.svg">
  <defs
     id="defs4143" />
  <sodipodi:namedview
     id="base"
     pagecolor="#ffffff"
     bordercolor="#666666"
     borderopacity="1.0"
     inkscape:pageopacity="0.0"
     inkscape:pageshadow="2"
     inkscape:zoom="0.94852905"
     inkscape:cx="147.33766"
     inkscape:cy="31.89378"
     inkscape:document-units="px"
     inkscape:current-layer="layer1"
     showgrid="false"
     fit-margin-top="0"
     fit-margin-left="0"
     fit-margin-right="0"
     fit-margin-bottom="0"
     units="px"
     inkscape:window-width="1304"
     inkscape:window-height="745"
     inkscape:window-x="54"
     inkscape:window-y="-8"
     inkscape:window-maximized="1" />
  <metadata
     id="metadata4146">
    <rdf:RDF>
      <cc:Work
         rdf:about="">
        <dc:format>image/svg+xml</dc:format>
        <dc:type
           rdf:resource="http://purl.org/dc/dcmitype/StillImage" />
        <dc:title></dc:title>
      </cc:Work>
    </rdf:RDF>
  </metadata>
  <g
     inkscape:label="Layer 1"
     inkscape:groupmode="layer"
     id="layer1"
     transform="translate(-0.82356071,39.01417)">
    <rect
       style="opacity:1;fill:#001d26;fill-opacity:1;stroke:#00c8ff;stroke-width:8.93239307;stroke-miterlimit:4;stroke-dasharray:none;stroke-opacity:1"
       id="rect4151"
       width="196.29681"
       height="191.06761"
       x="5.2897573"
       y="-34.547974" />
    <path
       style="opacity:1;fill:#00bff4;fill-opacity:1;fill-rule:evenodd;stroke:none;stroke-width:1px;stroke-linecap:butt;stroke-linejoin:miter;stroke-opacity:1"
       d="m 155.8387,47.503748 0,-14.780604 c 0,0 -15.62712,-7.130262 -30.15299,-0.423259 -11.01554,5.086198 -16.15028,23.424038 -3.4748,33.612322 7.51714,6.042099 6.48282,4.203663 14.84842,9.288723 9.51344,5.782779 4.8274,12.087248 1.10467,12.509757 -8.01557,0.909724 -15.84047,-1.051384 -22.91964,-4.560091 l 0,14.916213 c 10.40353,5.105041 17.53667,5.070971 26.17118,3.390051 21.87028,-4.257596 21.35166,-25.272088 11.77034,-35.260968 -2.85471,-2.97614 -7.31299,-5.74345 -15.97399,-9.758874 -8.661,-4.015424 -9.41448,-12.963545 2.01076,-13.041038 11.09136,-0.07526 16.61605,4.107768 16.61605,4.107768 z"
       id="path4160"
       inkscape:connector-curvature="0"
       sodipodi:nodetypes="ccssssccsszsc" />
    <g
       transform="matrix(1.2501008,0,0,1.2501008,642.60008,-352.89441)"
       style="font-style:normal;font-variant:normal;font-weight:normal;font-stretch:normal;font-size:108.34708405px;line-height:125%;font-family:'Microsoft New Tai Lue';-inkscape-font-specification:'Microsoft New Tai Lue';letter-spacing:0px;word-spacing:0px;opacity:1;fill:#00bff4;fill-opacity:1;stroke:none;stroke-width:1px;stroke-linecap:butt;stroke-linejoin:miter;stroke-opacity:1"
       id="text4162">
      <path
         d="m -460.54143,336.07952 -0.4339,26.82984 -13.00981,0 0,-75.86412 20.84412,0 c 8.11193,0 14.38985,1.97508 18.83377,5.92523 4.47919,3.95015 6.71879,9.52269 6.71879,16.71762 0,7.19493 -1.02915,14.08201 -6.00211,18.66701 -4.93769,4.585 -9.47361,7.71385 -21.66129,7.72122 z m -0.32542,-37.84718 0,26.5516 5.0264,0 c 10.69276,-0.67965 14.70114,-4.94031 14.71047,-14.18449 0,-9.55625 -7.77034,-12.47194 -13.54525,-12.42135 z"
         id="path4167"
         inkscape:connector-curvature="0"
         sodipodi:nodetypes="ccccscscscccccsc"
         style="fill:#00bff4;fill-opacity:1" />
    </g>
  </g>
</svg>
