<?xml version="1.0" encoding="UTF-8" standalone="no"?>
<!-- Created with Inkscape (http://www.inkscape.org/) -->

<svg
   xmlns:dc="http://purl.org/dc/elements/1.1/"
   xmlns:cc="http://creativecommons.org/ns#"
   xmlns:rdf="http://www.w3.org/1999/02/22-rdf-syntax-ns#"
   xmlns:svg="http://www.w3.org/2000/svg"
   xmlns="http://www.w3.org/2000/svg"
   xmlns:sodipodi="http://sodipodi.sourceforge.net/DTD/sodipodi-0.dtd"
   xmlns:inkscape="http://www.inkscape.org/namespaces/inkscape"
   width="200"
   height="200"
   viewBox="0 0 199.99999 199.99999"
   id="svg4713"
   version="1.1"
   inkscape:version="0.91 r13725"
   sodipodi:docname="GitHubCRL.svg">
  <defs
     id="defs4715" />
  <sodipodi:namedview
     id="base"
     pagecolor="#ffffff"
     bordercolor="#666666"
     borderopacity="1.0"
     inkscape:pageopacity="0.0"
     inkscape:pageshadow="2"
     inkscape:zoom="1.8970581"
     inkscape:cx="145.65784"
     inkscape:cy="140.62549"
     inkscape:document-units="px"
     inkscape:current-layer="layer1"
     showgrid="false"
     units="px"
     fit-margin-top="0"
     fit-margin-left="0"
     fit-margin-right="0"
     fit-margin-bottom="0"
     showguides="true"
     inkscape:guide-bbox="true"
     inkscape:window-width="1304"
     inkscape:window-height="745"
     inkscape:window-x="54"
     inkscape:window-y="-8"
     inkscape:window-maximized="1">
    <sodipodi:guide
       position="100.01188,100.01917"
       orientation="1,0"
       id="guide5849" />
    <sodipodi:guide
       position="-8.7440072,100.01917"
       orientation="0,1"
       id="guide5851" />
  </sodipodi:namedview>
  <metadata
     id="metadata4718">
    <rdf:RDF>
      <cc:Work
         rdf:about="">
        <dc:format>image/svg+xml</dc:format>
        <dc:type
           rdf:resource="http://purl.org/dc/dcmitype/StillImage" />
        <dc:title></dc:title>
      </cc:Work>
    </rdf:RDF>
  </metadata>
  <g
     inkscape:label="Layer 1"
     inkscape:groupmode="layer"
     id="layer1"
     transform="translate(-0.05917978,-848.20185)">
    <rect
       style="opacity:1;fill:#ffffff;fill-opacity:1;stroke:#000000;stroke-width:14.8986702;stroke-miterlimit:4;stroke-dasharray:none;stroke-opacity:1"
       id="rect4774-1-7-7"
       width="185.1013"
       height="185.1013"
       x="7.5085149"
       y="855.65118"
       ry="92.550652" />
    <path
       style="opacity:1;fill:#000000;fill-opacity:1;fill-rule:evenodd;stroke:none;stroke-width:1px;stroke-linecap:butt;stroke-linejoin:miter;stroke-opacity:1"
       d="m 88.006954,977.55916 c -2.120387,1.99517 -3.422369,3.8432 -4.144779,8.68051 -1.77808,0.77072 -6.742507,2.38763 -10.557326,1.09475 -4.010301,-1.01905 -6.805941,-4.28116 -9.853507,-9.30599 -3.51674,-3.61745 -9.771237,-4.99609 -10.782435,-2.92119 -0.6959,1.42783 3.248846,3.21995 4.135234,4.17237 2.266402,2.43537 4.448225,5.50025 5.490548,8.41127 0.897616,2.50693 4.879287,7.80659 14.157833,8.06007 3.24423,0.0883 7.253283,-0.75261 7.253283,-0.75261 l 0.13822,11.78086 c 0.01185,0.9891 -0.396695,2.1211 -1.21491,2.677 -1.554845,1.0564 -3.630135,0.3971 -5.381706,-0.2851 -29.239483,-11.38686 -44.125835,-39.86277 -41.25816,-65.66679 4.231104,-38.07274 35.042648,-58.72777 63.826311,-58.14595 24.98978,0.50511 44.53912,13.73999 55.37171,32.22418 16.01094,27.32037 6.82583,60.64581 -9.23222,75.61708 -5.17662,4.82636 -9.38022,9.83458 -24.08644,16.10978 -1.47937,0.6312 -3.41057,1.1849 -4.80943,0.3909 -1.80601,-1.025 -1.65114,-2.6316 -1.64222,-4.1056 0.0356,-5.95617 0.18144,-13.53947 0.0663,-18.34682 -0.37773,-4.91793 -2.12855,-7.29416 -4.03674,-9.70471 0,0 24.15867,-0.69301 27.96974,-21.16491 3.80909,-20.46124 -5.55348,-27.60755 -5.55348,-27.60755 2.98015,-8.18901 -0.62286,-16.90825 -0.62286,-16.90825 0,0 -5.99003,-1.64541 -17.54927,6.59524 0,0 -7.34702,-2.35615 -16.34189,-2.19423 -8.769831,0.15787 -15.689229,2.1666 -15.689229,2.1666 -10.640159,-7.62653 -17.404933,-6.63573 -17.404933,-6.63573 0,0 -4.101178,8.49777 -0.857074,17.2805 0,0 -11.993664,10.64004 -4.179457,32.06239 5.890798,16.14922 26.788831,16.42193 26.788831,16.42193 z"
       id="path4147"
       inkscape:connector-curvature="0"
       sodipodi:nodetypes="ccccsssscssssssssssccsccssscssc" />
  </g>
</svg>
