<?xml version="1.0" encoding="UTF-8" standalone="no"?>
<!-- Created with Inkscape (http://www.inkscape.org/) -->

<svg
   xmlns:dc="http://purl.org/dc/elements/1.1/"
   xmlns:cc="http://creativecommons.org/ns#"
   xmlns:rdf="http://www.w3.org/1999/02/22-rdf-syntax-ns#"
   xmlns:svg="http://www.w3.org/2000/svg"
   xmlns="http://www.w3.org/2000/svg"
   xmlns:sodipodi="http://sodipodi.sourceforge.net/DTD/sodipodi-0.dtd"
   xmlns:inkscape="http://www.inkscape.org/namespaces/inkscape"
   width="200"
   height="200"
   viewBox="0 0 199.99999 200"
   id="svg4141"
   version="1.1"
   inkscape:version="0.91 r13725"
   sodipodi:docname="PhotoshopCCSQR.svg">
  <defs
     id="defs4143" />
  <sodipodi:namedview
     id="base"
     pagecolor="#ffffff"
     bordercolor="#666666"
     borderopacity="1.0"
     inkscape:pageopacity="0.0"
     inkscape:pageshadow="2"
     inkscape:zoom="1.6296875"
     inkscape:cx="95.557237"
     inkscape:cy="127.31882"
     inkscape:document-units="px"
     inkscape:current-layer="layer1"
     showgrid="false"
     fit-margin-top="0"
     fit-margin-left="0"
     fit-margin-right="0"
     fit-margin-bottom="0"
     units="px"
     inkscape:window-width="1304"
     inkscape:window-height="745"
     inkscape:window-x="54"
     inkscape:window-y="-8"
     inkscape:window-maximized="1" />
  <metadata
     id="metadata4146">
    <rdf:RDF>
      <cc:Work
         rdf:about="">
        <dc:format>image/svg+xml</dc:format>
        <dc:type
           rdf:resource="http://purl.org/dc/dcmitype/StillImage" />
        <dc:title></dc:title>
      </cc:Work>
    </rdf:RDF>
  </metadata>
  <g
     inkscape:label="Layer 1"
     inkscape:groupmode="layer"
     id="layer1"
     transform="translate(-0.82356834,39.014172)">
    <rect
       style="opacity:1;fill:#001d26;fill-opacity:1;stroke:#00c8ff;stroke-width:8.81789494;stroke-miterlimit:4;stroke-dasharray:none;stroke-opacity:1"
       id="rect4151"
       width="191.18211"
       height="191.1821"
       x="5.2325082"
       y="-34.605225" />
    <path
       style="opacity:1;fill:#00bff4;fill-opacity:1;fill-rule:evenodd;stroke:none;stroke-width:1px;stroke-linecap:butt;stroke-linejoin:miter;stroke-opacity:1"
       d="m 151.45915,50.709889 0,-14.363017 c 0,0 -15.18561,-6.928815 -29.30109,-0.411301 -10.70433,4.9425 -15.694,22.762253 -3.37663,32.662693 7.30476,5.871396 6.29966,4.0849 14.42891,9.026295 9.24466,5.619401 4.69102,11.745754 1.07347,12.156327 -7.78911,0.884021 -15.39294,-1.021681 -22.27211,-4.431258 l 0,14.494794 c 10.10961,4.960808 17.04122,4.927708 25.43178,3.294268 21.25239,-4.137302 20.74842,-24.558085 11.4378,-34.264755 -2.77406,-2.892057 -7.10638,-5.581184 -15.52269,-9.483163 -8.4163,-3.901978 -9.1485,-12.597293 1.95396,-12.672598 10.77799,-0.07313 16.1466,3.991715 16.1466,3.991715 z"
       id="path4160"
       inkscape:connector-curvature="0"
       sodipodi:nodetypes="ccssssccsszsc" />
    <g
       transform="matrix(1.2147824,0,0,1.2147824,624.46836,-338.37606)"
       style="font-style:normal;font-variant:normal;font-weight:normal;font-stretch:normal;font-size:108.34708405px;line-height:125%;font-family:'Microsoft New Tai Lue';-inkscape-font-specification:'Microsoft New Tai Lue';letter-spacing:0px;word-spacing:0px;opacity:1;fill:#00bff4;fill-opacity:1;stroke:none;stroke-width:1px;stroke-linecap:butt;stroke-linejoin:miter;stroke-opacity:1"
       id="text4162">
      <path
         d="m -460.54143,336.07952 -0.4339,26.82984 -13.00981,0 0,-75.86412 20.84412,0 c 8.11193,0 14.38985,1.97508 18.83377,5.92523 4.47919,3.95015 6.71879,9.52269 6.71879,16.71762 0,7.19493 -1.02915,14.08201 -6.00211,18.66701 -4.93769,4.585 -9.47361,7.71385 -21.66129,7.72122 z m -0.32542,-37.84718 0,26.5516 5.0264,0 c 10.69276,-0.67965 14.70114,-4.94031 14.71047,-14.18449 0,-9.55625 -7.77034,-12.47194 -13.54525,-12.42135 z"
         id="path4167"
         inkscape:connector-curvature="0"
         sodipodi:nodetypes="ccccscscscccccsc"
         style="fill:#00bff4;fill-opacity:1" />
    </g>
  </g>
</svg>
